<?xml version="1.0" standalone="no"?><!DOCTYPE svg PUBLIC "-//W3C//DTD SVG 1.1//EN" "http://www.w3.org/Graphics/SVG/1.1/DTD/svg11.dtd"><svg t="1694340551450" class="icon" viewBox="0 0 1024 1024" version="1.1" xmlns="http://www.w3.org/2000/svg" p-id="6616" xmlns:xlink="http://www.w3.org/1999/xlink" width="200" height="200"><path d="M813.568 869.376H210.432c-25.088 0-45.568 20.992-45.568 46.08 0 25.6 20.48 46.08 45.568 46.08h603.136c25.088 0 45.568-20.992 45.568-46.08 0.512-25.6-19.968-46.08-45.568-46.08z m137.216-806.912H73.216C32.768 62.464 0 95.232 0 136.192v592.384c0 40.96 32.768 74.24 73.216 74.24h877.568c40.448 0 73.216-33.28 73.216-74.24V136.192c0-40.96-32.768-73.728-73.216-73.728zM835.072 358.4l-201.728 203.776c-14.336 11.776-34.816 11.776-48.64 0L414.208 389.12l-171.008 173.056c-17.408 12.8-41.984 9.216-54.784-8.704-10.24-13.824-10.24-32.768 0-46.592l201.728-203.776c13.824-11.776 34.304-11.776 48.128 0L609.28 475.648l171.008-173.056c17.408-12.8 41.984-9.216 54.784 8.704 10.24 13.824 10.24 32.768 0 47.104z" fill="#6A78FF" p-id="6617"></path></svg>